<?xml version="1.0" encoding="UTF-8"?>
<svg version="1.1" xmlns="http://www.w3.org/2000/svg" width="120" height="120">
<path d="M0 0 C39.6 0 79.2 0 120 0 C120 39.6 120 79.2 120 120 C80.4 120 40.8 120 0 120 C0 80.4 0 40.8 0 0 Z " fill="#B1DAE8" transform="translate(0,0)"/>
<path d="M0 0 C39.6 0 79.2 0 120 0 C120 39.6 120 79.2 120 120 C80.4 120 40.8 120 0 120 C0 80.4 0 40.8 0 0 Z M22.0625 10.8125 C19.56635319 14.67018144 19.89833897 16.29856977 20.125 20.8125 C20.39038114 27.32454489 20.39038114 27.32454489 18.56640625 30.48046875 C16.77646576 32.40437568 14.92045984 34.20757082 13 36 C9.12386696 41.50160819 9.20399827 47.4978286 10 54 C12.31612173 58.89948827 15.68795341 61.85579936 20 65 C22.11100603 65.64819977 22.11100603 65.64819977 24 66 C23.45859375 66.87011719 23.45859375 66.87011719 22.90625 67.7578125 C19.1183347 73.9315178 19.1183347 73.9315178 19 81 C21.95377498 83.36980013 21.95377498 83.36980013 26 83 C25.90525391 84.32451172 25.90525391 84.32451172 25.80859375 85.67578125 C26.13047523 91.26600866 29.34818255 94.9320619 33 99 C38.00271658 102.14985859 43.18970895 102.99014323 49 102 C52.04881825 100.42983048 52.04881825 100.42983048 54 98 C54.495 96.02 54.495 96.02 55 94 C57.97 94 60.94 94 64 94 C64.2475 94.763125 64.495 95.52625 64.75 96.3125 C66.16933913 99.36407912 67.14251259 100.28748164 70 102 C74.70266817 102.71486163 79.35033558 102.62320656 83.8125 100.9375 C88.23385576 97.02144204 91.91115218 93.66147455 93.0625 87.6875 C93.5265625 85.8621875 93.5265625 85.8621875 94 84 C96.5625 82.8125 96.5625 82.8125 99 82 C100.26768453 79.75004756 100.26768453 79.75004756 100 77 C98.17946646 73.85251385 98.17946646 73.85251385 96 71 C95.67 70.01 95.34 69.02 95 68 C95.58007812 67.72027344 96.16015625 67.44054687 96.7578125 67.15234375 C102.94080337 63.97922468 107.83256226 60.33487549 111 54 C111.9027374 45.73350467 111.0521301 39.68395506 106 33 C104.90227898 31.8894251 103.79824283 30.78505111 102.6875 29.6875 C99.72406198 26.48398599 99.72286375 24.17153747 99.875 19.875 C99.94847656 18.32619141 99.94847656 18.32619141 100.0234375 16.74609375 C100.19647624 13.84271003 100.19647624 13.84271003 98.5 10.9375 C93.59782699 7.13831592 88.23482528 5.40379846 82.01953125 5.63671875 C77.13708217 6.51499296 73.06394215 9.29070523 69 12 C66.20266612 12.24955468 63.54731227 12.37021827 60.75 12.375 C59.64205078 12.41173828 59.64205078 12.41173828 58.51171875 12.44921875 C52.85648114 12.47914064 49.7056115 11.1133983 45 8 C36.66557706 3.72593696 29.59320901 6.16589231 22.0625 10.8125 Z " fill="#010202" transform="translate(0,0)"/>
<path d="M0 0 C0.80050781 0.21934204 0.80050781 0.21934204 1.6171875 0.44311523 C4.076625 1.11355662 6.53825994 1.77556545 9 2.4375 C10.25876953 2.78264648 10.25876953 2.78264648 11.54296875 3.13476562 C28.12683891 7.56998671 49.60020906 8.45510615 65.859375 1.8359375 C68 1 68 1 71 2 C72 3.75 72 3.75 73 6 C73.556875 6.804375 74.11375 7.60875 74.6875 8.4375 C76 11 76 11 76 13.6875 C75.67 14.450625 75.34 15.21375 75 16 C74.21625 16.226875 73.4325 16.45375 72.625 16.6875 C69.83341272 17.70528125 69.83341272 17.70528125 69.25 20.09375 C69.04375 20.9496875 68.8375 21.805625 68.625 22.6875 C67.21740274 28.26935121 64.60010838 31.58128309 60 35 C55.37364546 36.54211818 50.82606839 36.64206465 46 36 C42.58688333 33.47429367 41.33362232 32.00086696 40 28 C37.03 28 34.06 28 31 28 C30.7525 28.763125 30.505 29.52625 30.25 30.3125 C28.79319388 33.44463315 28.10526637 34.48717792 25 36 C19.52532355 36.88545063 14.70161587 36.18943699 9.86328125 33.46484375 C6.28192853 30.64931488 3.91393771 27.10433309 2 23 C1.625 19.4375 1.625 19.4375 2 17 C1.030625 16.855625 0.06125 16.71125 -0.9375 16.5625 C-4 16 -4 16 -5 15 C-5.90677185 8.9548543 -3.07388297 4.94016906 0 0 Z " fill="#B1DAE8" transform="translate(24,66)"/>
<path d="M0 0 C0.80050781 0.21934204 0.80050781 0.21934204 1.6171875 0.44311523 C4.076625 1.11355662 6.53825994 1.77556545 9 2.4375 C10.25876953 2.78264648 10.25876953 2.78264648 11.54296875 3.13476562 C28.12683891 7.56998671 49.60020906 8.45510615 65.859375 1.8359375 C68 1 68 1 71 2 C70.4140625 3.859375 70.4140625 3.859375 69 6 C65.9609375 7.265625 65.9609375 7.265625 62.375 8.25 C61.18648438 8.58515625 59.99796875 8.9203125 58.7734375 9.265625 C57.85820313 9.50796875 56.94296875 9.7503125 56 10 C56.33 10.5775 56.66 11.155 57 11.75 C58 14 58 14 58 18 C56.35 17.67 54.7 17.34 53 17 C53 16.34 53 15.68 53 15 C52.34 15 51.68 15 51 15 C51 15.66 51 16.32 51 17 C49.35 17.66 47.7 18.32 46 19 C45.95745644 17.00045254 45.95919217 14.99958364 46 13 C46.33 12.67 46.66 12.34 47 12 C46.38705078 11.98541748 45.77410156 11.97083496 45.14257812 11.95581055 C32.47382617 11.62061451 20.37155859 10.85497506 8 8 C8.04253906 8.9384375 8.08507813 9.876875 8.12890625 10.84375 C8 14 8 14 5.9375 16.5 C3 18 3 18 -0.75 17.3125 C-4 16 -4 16 -5 15 C-5.90677185 8.9548543 -3.07388297 4.94016906 0 0 Z " fill="#73A0D4" transform="translate(24,66)"/>
<path d="M0 0 C8.03571429 0.9375 8.03571429 0.9375 12 2 C12.20625 3.27875 12.4125 4.5575 12.625 5.875 C13.08483533 8.07813968 13.08483533 8.07813968 14 10 C16.99428144 11.61147442 16.99428144 11.61147442 20 12 C20 12.66 20 13.32 20 14 C20.66 14 21.32 14 22 14 C21.0022242 16.99332739 20.2477975 17.94766315 18 20 C19.32 19.34 20.64 18.68 22 18 C22.75 19.6875 22.75 19.6875 23 22 C21.21482174 24.64698845 19.87978754 26.56010623 17 28 C11.49385752 28.69683546 6.73250042 28.20097719 1.86328125 25.46875 C-1.66243423 22.68956966 -4.18111167 19.08560902 -6 15 C-6.30859375 12.3359375 -6.30859375 12.3359375 -6 10 C-5.195625 9.360625 -4.39125 8.72125 -3.5625 8.0625 C-0.69801588 6.1817857 -0.69801588 6.1817857 -0.1875 2.75 C-0.125625 1.8425 -0.06375 0.935 0 0 Z " fill="#AFD7E4" transform="translate(32,74)"/>
<path d="M0 0 C13.86 0.495 13.86 0.495 28 1 C25 10 25 10 22.875 12 C18.95945678 13.36192808 15.12201254 13.73956783 11 14 C11 13.34 11 12.68 11 12 C10.01 12 9.02 12 8 12 C8 11.34 8 10.68 8 10 C7.05125 9.896875 6.1025 9.79375 5.125 9.6875 C2 9 2 9 0 6 C0 4.02 0 2.04 0 0 Z " fill="#E1BCD3" transform="translate(44,76)"/>
<path d="M0 0 C9.405 2.475 9.405 2.475 19 5 C17.68 5.33 16.36 5.66 15 6 C15.33 6.99 15.66 7.98 16 9 C13.36 8.67 10.72 8.34 8 8 C8.103125 8.9075 8.20625 9.815 8.3125 10.75 C8 14 8 14 5.9375 16.5 C3 18 3 18 -0.75 17.3125 C-4 16 -4 16 -5 15 C-5.92227205 8.85151969 -3.08354824 5.0878546 0 0 Z " fill="#74A1CE" transform="translate(24,66)"/>
<path d="M0 0 C0.391875 0.495 0.78375 0.99 1.1875 1.5 C2.94454432 3.21841684 2.94454432 3.21841684 5.5625 3.375 C6.366875 3.25125 7.17125 3.1275 8 3 C8.66 2.01 9.32 1.02 10 0 C12.97 0.495 12.97 0.495 16 1 C16.33 3.31 16.66 5.62 17 8 C11.62602496 11.58265003 8.46829861 12.71869985 2 12 C-3.15625 9.84375 -3.15625 9.84375 -5 8 C-5.375 5.625 -5.375 5.625 -5 3 C-2.5 1.1875 -2.5 1.1875 0 0 Z " fill="#F5F3F3" transform="translate(54,46)"/>
<path d="M0 0 C1.17369141 -0.00386719 1.17369141 -0.00386719 2.37109375 -0.0078125 C4.5625 0.125 4.5625 0.125 7.5625 1.125 C7.5625 1.785 7.5625 2.445 7.5625 3.125 C8.2225 3.125 8.8825 3.125 9.5625 3.125 C9.5625 4.115 9.5625 5.105 9.5625 6.125 C5.2725 7.115 0.9825 8.105 -3.4375 9.125 C-3.4375 10.115 -3.4375 11.105 -3.4375 12.125 C-6.4375 14.125 -6.4375 14.125 -9.4375 14.125 C-9.4375 13.465 -9.4375 12.805 -9.4375 12.125 C-10.0975 12.125 -10.7575 12.125 -11.4375 12.125 C-11.75 9.4375 -11.75 9.4375 -11.4375 6.125 C-7.80445846 1.82271397 -5.56458468 -0.0182745 0 0 Z " fill="#DBBFD5" transform="translate(35.4375,9.875)"/>
<path d="M0 0 C0.69996094 0.35964844 1.39992188 0.71929687 2.12109375 1.08984375 C3.29671875 1.66734375 4.47234375 2.24484375 5.68359375 2.83984375 C6.48796875 3.25234375 7.29234375 3.66484375 8.12109375 4.08984375 C7.13109375 4.74984375 6.14109375 5.40984375 5.12109375 6.08984375 C4.13109375 5.75984375 3.14109375 5.42984375 2.12109375 5.08984375 C1.79109375 5.74984375 1.46109375 6.40984375 1.12109375 7.08984375 C0.13109375 7.08984375 -0.85890625 7.08984375 -1.87890625 7.08984375 C-1.87890625 6.09984375 -1.87890625 5.10984375 -1.87890625 4.08984375 C-2.53890625 4.08984375 -3.19890625 4.08984375 -3.87890625 4.08984375 C-3.87890625 3.42984375 -3.87890625 2.76984375 -3.87890625 2.08984375 C-5.77441647 2.03542719 -7.67038545 1.9968634 -9.56640625 1.96484375 C-10.62214844 1.94164062 -11.67789063 1.9184375 -12.765625 1.89453125 C-15.93886829 2.09360548 -18.06263811 2.64147728 -20.87890625 4.08984375 C-22.22300887 6.1071958 -22.22300887 6.1071958 -22.87890625 8.08984375 C-23.53890625 8.08984375 -24.19890625 8.08984375 -24.87890625 8.08984375 C-25.20890625 10.39984375 -25.53890625 12.70984375 -25.87890625 15.08984375 C-26.20890625 15.08984375 -26.53890625 15.08984375 -26.87890625 15.08984375 C-27.65598631 6.19659414 -27.65598631 6.19659414 -24.81640625 2.15234375 C-16.21349546 -3.88799787 -9.20835304 -4.48448389 0 0 Z " fill="#B0D3DF" transform="translate(46.87890625,8.91015625)"/>
<path d="M0 0 C4.0042343 3.49087093 5.62671065 5.64951939 6 11 C2.25 14 2.25 14 0 14 C-0.33 14.66 -0.66 15.32 -1 16 C-2.7074998 14.71937515 -4.37373596 13.38232443 -6 12 C-6 11.34 -6 10.68 -6 10 C-6.66 10 -7.32 10 -8 10 C-8 8.02 -8 6.04 -8 4 C-5.36 2.68 -2.72 1.36 0 0 Z " fill="#B1D8E5" transform="translate(94,70)"/>
<path d="M0 0 C0.680625 0.00644531 1.36125 0.01289063 2.0625 0.01953125 C4 0.1875 4 0.1875 7 1.1875 C9.8644432 4.90066711 10.32332002 7.55324638 10 12.1875 C8.35 12.1875 6.7 12.1875 5 12.1875 C4.67 11.1975 4.34 10.2075 4 9.1875 C3.319375 9.06375 2.63875 8.94 1.9375 8.8125 C-1.4277412 8.09649123 -4.70013425 7.15804875 -8 6.1875 C-7.6875 4.3125 -7.6875 4.3125 -7 2.1875 C-3.97455666 0.17053778 -3.38932618 -0.07061096 0 0 Z " fill="#E0BDD4" transform="translate(84,9.8125)"/>
<path d="M0 0 C4.455 0.99 4.455 0.99 9 2 C9 3.65 9 5.3 9 7 C8.34 7 7.68 7 7 7 C6.34 8.32 5.68 9.64 5 11 C2.66705225 11.04241723 0.33297433 11.04092937 -2 11 C-3 10 -3 10 -3.25 7.1875 C-2.97826344 3.72285889 -2.31309135 2.50584896 0 0 Z " fill="#ADD2DB" transform="translate(22,71)"/>
<path d="M0 0 C2.62858348 1.48875524 4.14208742 3.49704624 5.765625 6 C5.435625 6.66 5.105625 7.32 4.765625 8 C3.445625 7.34 2.125625 6.68 0.765625 6 C0.765625 5.34 0.765625 4.68 0.765625 4 C0.146875 3.855625 -0.471875 3.71125 -1.109375 3.5625 C-3.234375 3 -3.234375 3 -5.234375 2 C-7.02297011 1.87792129 -8.81665881 1.82451552 -10.609375 1.8125 C-11.56585938 1.79832031 -12.52234375 1.78414062 -13.5078125 1.76953125 C-16.26447517 2.00254428 -17.88384895 2.59079836 -20.234375 4 C-20.894375 3.34 -21.554375 2.68 -22.234375 2 C-14.50202784 -2.60650469 -8.4219602 -3.44836166 0 0 Z " fill="#ABD0DB" transform="translate(94.234375,8)"/>
<path d="M0 0 C13.86 0.495 13.86 0.495 28 1 C27.34 3.64 26.68 6.28 26 9 C24 6 24 6 24 2 C16.74 2 9.48 2 2 2 C2 3.65 2 5.3 2 7 C2.66 7 3.32 7 4 7 C4 7.66 4 8.32 4 9 C3.01 8.67 2.02 8.34 1 8 C0 6 0 6 0 0 Z " fill="#D6C0DA" transform="translate(44,76)"/>
<path d="M0 0 C3.125 0.375 3.125 0.375 6 1 C5.67 2.65 5.34 4.3 5 6 C3.02 6 1.04 6 -1 6 C-1.625 4.125 -1.625 4.125 -2 2 C-1.34 1.34 -0.68 0.68 0 0 Z " fill="#174A55" transform="translate(73,45)"/>
<path d="M0 0 C0.33 1.32 0.66 2.64 1 4 C-1.3125 5.125 -1.3125 5.125 -4 6 C-4.99 5.34 -5.98 4.68 -7 4 C-6.625 2.0625 -6.625 2.0625 -6 0 C-3.50907189 -1.24546405 -2.58919267 -0.7767578 0 0 Z " fill="#194A56" transform="translate(47,45)"/>
<path d="M0 0 C0.93065133 2.60582371 1.14917407 3.64198224 0.0625 6.25 C-0.288125 6.8275 -0.63875 7.405 -1 8 C-6.75 4.375 -6.75 4.375 -9 1 C-5.92677456 0.08941469 -3.19902639 -0.08886184 0 0 Z " fill="#ACD3E0" transform="translate(23,58)"/>
<path d="M0 0 C2.97 0.495 2.97 0.495 6 1 C6.33 3.31 6.66 5.62 7 8 C6.01 8.33 5.02 8.66 4 9 C4.33 6.69 4.66 4.38 5 2 C3.989375 2.70125 2.97875 3.4025 1.9375 4.125 C-0.26840853 5.41253029 -1.45750449 6.04817528 -4.0234375 5.8203125 C-5.9375 5.25 -5.9375 5.25 -9 4 C-8.67 3.34 -8.34 2.68 -8 2 C-7.67 2.33 -7.34 2.66 -7 3 C-4.54207971 3.33343551 -4.54207971 3.33343551 -2 3 C-1.34 2.01 -0.68 1.02 0 0 Z " fill="#E6ECEE" transform="translate(64,46)"/>
<path d="M0 0 C3.25696479 0.41755959 4.63443291 0.63443291 7 3 C6.01 3.495 6.01 3.495 5 4 C5 4.66 5 5.32 5 6 C4.01 6.495 4.01 6.495 3 7 C2.67 7.66 2.34 8.32 2 9 C1.01 8.34 0.02 7.68 -1 7 C-1.25 3.9375 -1.25 3.9375 -1 1 C-0.67 0.67 -0.34 0.34 0 0 Z " fill="#B0DAEA" transform="translate(22,71)"/>
<path d="M0 0 C2 1.3125 2 1.3125 4 3 C4 3.99 4 4.98 4 6 C3.34 6 2.68 6 2 6 C2.33 7.65 2.66 9.3 3 11 C1.68 10.67 0.36 10.34 -1 10 C-1.02689216 8.52093108 -1.04634621 7.04172517 -1.0625 5.5625 C-1.07410156 4.73878906 -1.08570312 3.91507812 -1.09765625 3.06640625 C-1 1 -1 1 0 0 Z " fill="#AFDAE8" transform="translate(94,70)"/>
<path d="M0 0 C0 2.64 0 5.28 0 8 C2.31 8.66 4.62 9.32 7 10 C6.01 10.495 6.01 10.495 5 11 C4.67 11.66 4.34 12.32 4 13 C2.2925002 11.71937515 0.62626404 10.38232443 -1 9 C-1 8.34 -1 7.68 -1 7 C-1.66 7 -2.32 7 -3 7 C-3 5.02 -3 3.04 -3 1 C-1 0 -1 0 0 0 Z " fill="#BEA488" transform="translate(89,73)"/>
<path d="M0 0 C0.66 0 1.32 0 2 0 C2.33 1.32 2.66 2.64 3 4 C2.34 4 1.68 4 1 4 C1.20625 4.598125 1.4125 5.19625 1.625 5.8125 C2 8 2 8 0 11 C-1.5625 9.3125 -1.5625 9.3125 -3 7 C-2.6875 4.25 -2.6875 4.25 -2 2 C-1.34 2 -0.68 2 0 2 C0 1.34 0 0.68 0 0 Z " fill="#A8CFDC" transform="translate(67,89)"/>
<path d="M0 0 C0.33 0 0.66 0 1 0 C1 1.98 1 3.96 1 6 C1.66 6 2.32 6 3 6 C5.6875 8.25 5.6875 8.25 8 11 C7.8125 13.3125 7.8125 13.3125 7 15 C7 14.34 7 13.68 7 13 C5.68 12.67 4.36 12.34 3 12 C3 11.34 3 10.68 3 10 C2.34 10 1.68 10 1 10 C-0.1577506 6.52674819 -0.06866652 3.63932552 0 0 Z " fill="#B6D6DD" transform="translate(85,74)"/>
<path d="M0 0 C3.125 0.375 3.125 0.375 6 1 C6 1.99 6 2.98 6 4 C5 5 5 5 2.5625 5.25 C1.716875 5.1675 0.87125 5.085 0 5 C-0.66 4.01 -1.32 3.02 -2 2 C-1.34 1.34 -0.68 0.68 0 0 Z " fill="#2B535C" transform="translate(57,45)"/>
<path d="M0 0 C1.81495662 0.44850658 3.62693134 0.90909571 5.4375 1.375 C6.95150391 1.75785156 6.95150391 1.75785156 8.49609375 2.1484375 C11 3 11 3 12 5 C8.7 5 5.4 5 2 5 C2 4.34 2 3.68 2 3 C1.01 2.34 0.02 1.68 -1 1 C-0.67 0.67 -0.34 0.34 0 0 Z " fill="#6C9CD8" transform="translate(25,68)"/>
<path d="M0 0 C4.95696581 1.23924145 7.11658466 2.78577758 10 7 C9.67 7.66 9.34 8.32 9 9 C7.68 8.34 6.36 7.68 5 7 C5 6.34 5 5.68 5 5 C4.34 5 3.68 5 3 5 C3 4.01 3 3.02 3 2 C2.01 2 1.02 2 0 2 C0 1.34 0 0.68 0 0 Z " fill="#9FC4CD" transform="translate(90,7)"/>
<path d="M0 0 C0.66 0.99 1.32 1.98 2 3 C2.66 2.67 3.32 2.34 4 2 C3.34 3.32 2.68 4.64 2 6 C1.34 6 0.68 6 0 6 C-0.33 8.31 -0.66 10.62 -1 13 C-1.33 13 -1.66 13 -2 13 C-2.05416188 11.39620659 -2.09286638 9.79188594 -2.125 8.1875 C-2.14820312 7.29417969 -2.17140625 6.40085937 -2.1953125 5.48046875 C-2 3 -2 3 0 0 Z " fill="#A4C3CE" transform="translate(22,11)"/>
<path d="M0 0 C0.33 0 0.66 0 1 0 C1.3125 2.75 1.3125 2.75 1 6 C-1.1875 8.4375 -1.1875 8.4375 -4 10 C-6.8125 9.75 -6.8125 9.75 -9 9 C-9 8.67 -9 8.34 -9 8 C-8.030625 7.71125 -7.06125 7.4225 -6.0625 7.125 C-2.89335797 6.35785318 -2.89335797 6.35785318 -2 4 C-1.34 4 -0.68 4 0 4 C0 2.68 0 1.36 0 0 Z " fill="#BFA07F" transform="translate(31,74)"/>
<path d="M0 0 C0.66 0 1.32 0 2 0 C1.67 1.98 1.34 3.96 1 6 C-1.64 6 -4.28 6 -7 6 C-4.702779 4.25728062 -2.40133271 2.60088848 0 1 C0 0.67 0 0.34 0 0 Z " fill="#EBEEEF" transform="translate(63,52)"/>
<path d="M0 0 C1.32 0.33 2.64 0.66 4 1 C4.6875 2.8125 4.6875 2.8125 5 5 C3.5625 6.75 3.5625 6.75 2 8 C1.855625 7.236875 1.71125 6.47375 1.5625 5.6875 C1.0367406 2.91827092 1.0367406 2.91827092 0 0 Z " fill="#B3DDEB" transform="translate(95,14)"/>
<path d="M0 0 C1.32 0 2.64 0 4 0 C4 3.63 4 7.26 4 11 C2.35 11 0.7 11 -1 11 C0.32 10.67 1.64 10.34 3 10 C2.690625 8.72125 2.38125 7.4425 2.0625 6.125 C1.80146484 5.04605469 1.80146484 5.04605469 1.53515625 3.9453125 C1.05153008 1.9414343 1.05153008 1.9414343 0 0 Z " fill="#C4CFE0" transform="translate(91,12)"/>
<path d="M0 0 C0.66 0.66 1.32 1.32 2 2 C1.625 4.625 1.625 4.625 1 7 C0.01 6.34 -0.98 5.68 -2 5 C-2 3.68 -2 2.36 -2 1 C-1.34 0.67 -0.68 0.34 0 0 Z " fill="#A5CAD4" transform="translate(98,75)"/>
<path d="M0 0 C1.258125 -0.04125 2.51625 -0.0825 3.8125 -0.125 C4.52019531 -0.14820313 5.22789063 -0.17140625 5.95703125 -0.1953125 C8 0 8 0 11 2 C10 3 10 3 7.1875 3.25 C3.72285889 2.97826344 2.50584896 2.31309135 0 0 Z " fill="#9CBFC8" transform="translate(32,6)"/>
<path d="M0 0 C0.99 0.33 1.98 0.66 3 1 C1.68 2.32 0.36 3.64 -1 5 C-2.32 4.34 -3.64 3.68 -5 3 C-2.6875 1.4375 -2.6875 1.4375 0 0 Z " fill="#A2CAD4" transform="translate(77,7)"/>
<path d="M0 0 C0 0.66 0 1.32 0 2 C2.64 2 5.28 2 8 2 C8 2.33 8 2.66 8 3 C6.20866022 3.05391993 4.41686101 3.09275571 2.625 3.125 C1.62726562 3.14820313 0.62953125 3.17140625 -0.3984375 3.1953125 C-3 3 -3 3 -5 1 C-2 0 -2 0 0 0 Z " fill="#E8BAD5" transform="translate(32,12)"/>
</svg>
