<?xml version="1.0" standalone="no"?>
<!DOCTYPE svg PUBLIC "-//W3C//DTD SVG 20010904//EN"
 "http://www.w3.org/TR/2001/REC-SVG-20010904/DTD/svg10.dtd">
<svg version="1.0" xmlns="http://www.w3.org/2000/svg"
 width="120.000000pt" height="120.000000pt" viewBox="0 0 120.000000 120.000000"
 preserveAspectRatio="xMidYMid meet">

<g transform="translate(0.000000,120.000000) scale(0.100000,-0.100000)"
fill="#000000" stroke="none">
<path d="M0 600 l0 -600 600 0 600 0 0 600 0 600 -600 0 -600 0 0 -600z m477
500 c46 -26 62 -30 131 -30 64 0 84 4 105 20 29 23 99 50 131 50 44 0 96 -22
126 -52 30 -29 31 -35 28 -93 -3 -60 -1 -64 36 -105 74 -83 98 -189 56 -257
-22 -36 -91 -90 -127 -99 -28 -7 -29 -25 -3 -49 10 -9 24 -33 31 -52 12 -39 3
-57 -35 -67 -17 -4 -25 -15 -29 -42 -12 -75 -91 -144 -164 -144 -55 0 -86 15
-107 51 -15 25 -23 29 -62 29 -24 0 -44 -5 -44 -10 0 -6 -11 -22 -25 -35 -21
-22 -33 -25 -90 -25 -62 0 -68 2 -106 38 -27 25 -47 56 -59 92 -10 30 -23 56
-29 56 -6 1 -18 2 -26 3 -28 2 -28 46 1 102 20 38 24 54 15 57 -27 9 -96 69
-114 100 -40 69 -18 167 58 251 34 37 35 40 29 98 -6 56 -5 62 22 92 61 67
155 75 251 21z"/>
<path d="M416 745 c-29 -29 7 -65 45 -45 24 14 24 36 0 50 -25 13 -27 13 -45
-5z"/>
<path d="M565 736 c-19 -14 -19 -15 6 -26 21 -9 32 -9 50 0 22 12 22 13 4 26
-24 18 -36 18 -60 0z"/>
<path d="M720 735 c-19 -23 -4 -45 29 -45 32 0 48 24 30 46 -15 18 -43 18 -59
-1z"/>
</g>
</svg>
